<svg width="16" height="21" viewBox="0 0 16 21" fill="none" xmlns="http://www.w3.org/2000/svg">
<path d="M15.5 7.64732C15.5 3.69996 12.1421 0.5 8 0.5C3.85786 0.5 0.5 3.69996 0.5 7.64732V8.07782C0.5 9.65722 1.01784 11.1971 1.98114 12.4823L7.98518 20.4927C7.99245 20.5024 8.00756 20.5024 8.01482 20.4927L14.0189 12.4823C14.9822 11.1971 15.5 9.65722 15.5 8.07782V7.64732Z" stroke="#2D383F" stroke-linecap="round" stroke-linejoin="round"/>
<path d="M6.53407 4.78903C7.46044 4.36389 8.53956 4.36389 9.46593 4.78903C10.3923 5.21417 11.0651 6.01818 11.2939 6.97347C11.5227 7.92875 11.2826 8.93134 10.6415 9.69742C10.0004 10.4635 9.0282 10.9097 8 10.9097C6.9718 10.9097 5.99955 10.4635 5.35848 9.69742C4.7174 8.93134 4.47728 7.92875 4.70608 6.97347C4.93487 6.01818 5.60769 5.21417 6.53407 4.78903Z" stroke="#2D383F" stroke-linecap="round" stroke-linejoin="round"/>
</svg>
