<svg width="25" height="21" viewBox="0 0 25 21" fill="none" xmlns="http://www.w3.org/2000/svg">
<path d="M24.6441 14.2169C25.4208 11.7845 24.7817 9.02372 24.1026 7.11068C24.0981 7.03666 24.0753 6.96492 24.036 6.90206C23.8052 6.28065 23.5921 5.77021 23.4101 5.40181C23.7451 5.26843 23.9661 4.94563 23.9694 4.5851V0.887726C23.9694 0.397424 23.572 7.43492e-07 23.0817 7.43492e-07H12.176C11.9309 -0.000443119 11.7318 0.197908 11.7313 0.443086C11.7313 0.452241 11.7316 0.461396 11.7321 0.470495C11.883 3.13367 11.6877 4.94019 11.124 6.21408C11.1128 6.22673 11.1024 6.2401 11.093 6.25402C11.0913 6.27616 11.0913 6.29846 11.093 6.3206C10.8778 6.78433 10.5868 7.20883 10.2319 7.57673L10.1919 7.60337C10.1919 7.60337 10.1919 7.60337 10.1919 7.63444C9.67154 8.13073 9.07139 8.53586 8.41647 8.83286C7.27541 9.33914 6.10439 9.77496 4.90995 10.1378L4.68358 10.2133C0.533467 11.5892 -0.00804501 14.0838 0.000832242 15.3354C-0.000277414 15.3532 -0.000277414 15.371 0.000832242 15.3887V18.5579C0.00149804 18.7121 0.0821146 18.8549 0.213886 18.9352C1.231 19.554 2.32889 20.029 3.47628 20.3467C3.71224 20.413 3.95737 20.2755 4.02373 20.0395C4.03621 19.9951 4.0417 19.9489 4.03998 19.9028V19.8007H4.69246V20.2446C4.68963 20.4644 4.84826 20.6533 5.0653 20.6884C5.45146 20.7506 5.83763 20.7994 6.21491 20.8305C6.33852 20.8408 6.46086 20.799 6.55224 20.7151C6.64357 20.6303 6.69511 20.5112 6.69428 20.3866V19.8273H7.34676V20.4576C7.34676 20.7027 7.5455 20.9015 7.79062 20.9015C8.16346 20.9015 8.53631 20.9015 8.93579 20.8482C9.16698 20.8297 9.34486 20.6363 9.34414 20.4044V19.8273H9.99662V20.2179C9.99345 20.4631 10.1896 20.6644 10.4347 20.6675C10.4604 20.6678 10.4861 20.666 10.5115 20.6618C11.3263 20.537 12.1294 20.3455 12.9128 20.0892L12.9838 20.0581C16.0909 18.2827 18.0616 19.743 18.1415 19.8051C18.2189 19.8653 18.3142 19.898 18.4123 19.8984H18.9626C19.2078 19.8984 19.4065 19.6996 19.4065 19.4545V18.7044H20.0412V19.4456C20.0412 19.6907 20.24 19.8895 20.4851 19.8895H21.9143C22.1595 19.8895 22.3582 19.6907 22.3582 19.4456V18.7044H23.0151V19.4456C23.0151 19.6907 23.2138 19.8895 23.459 19.8895H24.5553C24.8004 19.8895 24.9992 19.6907 24.9992 19.4456V14.6608C25.0035 14.4465 24.8541 14.2597 24.6441 14.2169ZM14.1112 0.896603H23.0595V4.57178H14.1112V0.896603ZM8.53187 9.74722L8.53631 9.77385C8.90017 10.0692 9.23595 10.3976 9.53944 10.7548C9.45893 10.8887 9.41743 11.0424 9.4196 11.1987C9.41654 11.6669 9.79366 12.0489 10.2618 12.0519C10.73 12.055 11.112 11.6779 11.1151 11.2097C11.118 10.7686 10.7821 10.399 10.3428 10.3598C10.0621 9.97697 9.74223 9.62438 9.38853 9.3078C9.78517 9.08204 10.1583 8.81738 10.5026 8.51772C10.9331 8.92158 11.3336 9.35623 11.701 9.81824C11.5466 10.2603 11.7798 10.7437 12.2218 10.8982C12.6638 11.0526 13.1473 10.8195 13.3017 10.3775C13.4561 9.93547 13.223 9.452 12.781 9.29753C12.6893 9.26546 12.5928 9.24943 12.4956 9.25009H12.389C11.9997 8.75996 11.5755 8.29862 11.1196 7.86968C11.3311 7.60919 11.5183 7.32989 11.6789 7.03522C12.366 7.39292 13.0301 7.79317 13.6674 8.23365C13.663 8.70675 14.043 9.0938 14.5161 9.09818C14.9892 9.10257 15.3762 8.72256 15.3806 8.24946C15.385 7.77636 15.005 7.38931 14.5319 7.38493C14.3968 7.38365 14.2632 7.41439 14.1423 7.47464C13.4716 7.02057 12.7734 6.6085 12.0517 6.24071C12.5355 4.95351 12.7441 3.24464 12.6465 0.914357H13.2279V4.58954C13.2279 5.07984 13.6254 5.47726 14.1157 5.47726H22.4336C22.549 5.71251 22.7443 6.12086 22.9574 6.6535H22.7754C20.079 6.67297 17.9089 8.87464 17.9283 11.5711C17.9394 13.1034 18.6691 14.5415 19.8992 15.4553C16.3083 16.4007 10.9065 17.5237 6.36138 17.2307C7.20028 13.8796 6.19715 11.8156 5.54468 10.9101C6.56073 10.5769 7.55792 10.1886 8.53187 9.74722ZM4.65251 11.1631C5.13188 11.7268 6.38358 13.6221 5.46478 17.1065C3.86543 16.9807 2.31208 16.5114 0.910751 15.7305C0.894827 15.6291 0.884452 15.5268 0.87968 15.4242V15.3932C0.844171 14.4477 1.19926 12.4015 4.65251 11.1631ZM23.9028 19.0018V18.2605C23.9028 18.0154 23.7041 17.8166 23.459 17.8166H21.9188C21.6736 17.8166 21.4749 18.0154 21.4749 18.2605V19.0018H20.929V18.2605C20.929 18.0154 20.7302 17.8166 20.4851 17.8166H18.9538C18.7086 17.8166 18.5099 18.0154 18.5099 18.2605V18.984C17.9062 18.6067 15.7003 17.5104 12.571 19.2592C12.0143 19.443 11.4465 19.5912 10.871 19.7031V19.3968C10.871 19.1517 10.6723 18.9529 10.4272 18.9529H8.89584C8.65072 18.9529 8.45198 19.1517 8.45198 19.3968V20.0049H8.22561V19.3835C8.22561 19.1384 8.02687 18.9396 7.78174 18.9396H6.24154C5.99642 18.9396 5.79768 19.1384 5.79768 19.3835V19.9117L5.57131 19.8806V19.3835C5.57131 19.1384 5.37257 18.9396 5.12744 18.9396H3.58724C3.36148 18.938 3.17045 19.1061 3.14338 19.3302C2.35558 19.0708 1.59696 18.7302 0.87968 18.3138V16.7247C2.81492 17.7501 5.31831 18.1362 7.98148 18.1362C15.0567 18.1362 23.1527 15.4287 24.107 15.1046L24.1114 19.0018H23.9028ZM23.6853 14.319C23.3081 14.4433 22.3804 14.7629 21.0976 15.1046C19.1117 14.1435 18.281 11.7545 19.2421 9.76858C19.8996 8.41014 21.2665 7.53817 22.7754 7.51459C22.9504 7.51215 23.1253 7.52103 23.2992 7.54122L23.3036 7.55454C23.9561 9.43652 24.542 12.1219 23.6853 14.319Z" fill="#2D383F"/>
<path d="M15.8201 1.43371C15.1067 1.43371 14.5284 2.01201 14.5284 2.72535C14.5309 3.43769 15.1077 4.01455 15.8201 4.01699C16.5334 4.01699 17.1117 3.43869 17.1117 2.72535C17.1117 2.01201 16.5335 1.43371 15.8201 1.43371ZM15.8201 3.12926C15.597 3.12926 15.4162 2.94844 15.4162 2.72535C15.4162 2.50225 15.597 2.32143 15.8201 2.32143C16.0432 2.32143 16.224 2.50225 16.224 2.72535C16.224 2.94844 16.0432 3.12926 15.8201 3.12926Z" fill="#2D383F"/>
</svg>
