<svg width="22" height="20" viewBox="0 0 22 20" fill="none" xmlns="http://www.w3.org/2000/svg">
<path d="M21.5076 13.3564C22.1855 11.0713 21.6277 8.47754 21.035 6.68028C21.0311 6.61075 21.0112 6.54335 20.9769 6.4843C20.7754 5.9005 20.5895 5.42095 20.4307 5.07485C20.723 4.94954 20.9159 4.64628 20.9188 4.30757V0.833994C20.9188 0.373369 20.5719 6.9849e-07 20.144 6.9849e-07H10.6263C10.4124 -0.000416298 10.2387 0.185929 10.2383 0.416267C10.2383 0.424868 10.2385 0.433469 10.2389 0.442017C10.3707 2.944 10.2002 4.64117 9.70825 5.83795C9.69847 5.84984 9.68941 5.8624 9.68113 5.87548C9.67968 5.89628 9.67968 5.91723 9.68113 5.93803C9.49335 6.37369 9.23938 6.77249 8.92963 7.11813L8.89477 7.14315C8.89477 7.14315 8.89477 7.14315 8.89477 7.17234C8.44062 7.63859 7.91685 8.01921 7.34528 8.29823C6.34945 8.77387 5.32747 9.18331 4.28505 9.5242L4.08749 9.59509C0.465572 10.8878 -0.0070211 13.2313 0.000726321 14.4072C-0.000242107 14.4239 -0.000242107 14.4406 0.000726321 14.4573V17.4346C0.00130738 17.5795 0.0716637 17.7137 0.186664 17.7891C1.07433 18.3705 2.03249 18.8167 3.03384 19.1151C3.23978 19.1775 3.4537 19.0483 3.51162 18.8266C3.52251 18.7848 3.5273 18.7414 3.5258 18.6981V18.6022H4.09524V19.0192C4.09277 19.2258 4.23121 19.4032 4.42063 19.4362C4.75764 19.4946 5.09466 19.5405 5.42392 19.5696C5.53181 19.5794 5.63857 19.5401 5.71832 19.4612C5.79803 19.3816 5.84301 19.2697 5.84228 19.1526V18.6272H6.41172V19.2194C6.41172 19.4497 6.58516 19.6364 6.79909 19.6364C7.12448 19.6364 7.44987 19.6364 7.79851 19.5863C8.00028 19.5689 8.15552 19.3872 8.15489 19.1693V18.6272H8.72432V18.9942C8.72156 19.2245 8.89273 19.4136 9.10666 19.4166C9.12908 19.4169 9.1515 19.4151 9.17368 19.4112C9.88474 19.294 10.5856 19.1141 11.2694 18.8733L11.3313 18.8441C14.0429 17.1761 15.7629 18.548 15.8326 18.6064C15.9002 18.6629 15.9833 18.6936 16.0689 18.694H16.5492C16.7631 18.694 16.9366 18.5072 16.9366 18.277V17.5722H17.4905V18.2686C17.4905 18.4989 17.664 18.6856 17.8779 18.6856H19.1252C19.3392 18.6856 19.5126 18.4989 19.5126 18.2686V17.5722H20.0859V18.2686C20.0859 18.4989 20.2594 18.6856 20.4733 18.6856H21.4301C21.644 18.6856 21.8175 18.4989 21.8175 18.2686V13.7734C21.8212 13.5721 21.6908 13.3966 21.5076 13.3564ZM12.3153 0.842334H20.1247V4.29506H12.3153V0.842334ZM7.446 9.15724L7.44987 9.18226C7.76742 9.45977 8.06047 9.7683 8.32533 10.1038C8.25507 10.2296 8.21885 10.374 8.22074 10.5208C8.21808 10.9607 8.5472 11.3196 8.95578 11.3224C9.36441 11.3253 9.69779 10.971 9.70045 10.5312C9.70297 10.1168 9.40987 9.7696 9.02647 9.7327C8.78146 9.37309 8.50231 9.04184 8.19363 8.74442C8.53979 8.53232 8.86547 8.28369 9.16593 8.00216C9.54163 8.38158 9.89118 8.78992 10.2118 9.22396C10.0771 9.63924 10.2805 10.0935 10.6663 10.2386C11.052 10.3836 11.474 10.1646 11.6088 9.74938C11.7435 9.3341 11.5401 8.87989 11.1544 8.73477C11.0743 8.70465 10.9901 8.68958 10.9052 8.69021H10.8123C10.4725 8.22974 10.1023 7.79632 9.70437 7.39335C9.889 7.14862 10.0524 6.88623 10.1925 6.60939C10.7922 6.94544 11.3718 7.32147 11.9279 7.73529C11.9241 8.17975 12.2557 8.54337 12.6686 8.54749C13.0815 8.55161 13.4193 8.19461 13.4231 7.75014C13.4269 7.30567 13.0953 6.94205 12.6824 6.93794C12.5645 6.93674 12.4479 6.96561 12.3424 7.02222C11.757 6.59563 11.1477 6.2085 10.5179 5.86297C10.9401 4.65368 11.1222 3.04824 11.0369 0.859013H11.5444V4.31174C11.5444 4.77237 11.8912 5.14574 12.3191 5.14574H19.5785C19.6792 5.36674 19.8496 5.75038 20.0356 6.25078H19.8767C17.5235 6.26907 15.6296 8.33748 15.6465 10.8707C15.6562 12.3103 16.2931 13.6614 17.3666 14.5198C14.2327 15.408 9.51844 16.463 5.55175 16.1878C6.28389 13.0395 5.40843 11.1004 4.83899 10.2498C5.72573 9.93666 6.59601 9.57195 7.446 9.15724ZM4.06038 10.4875C4.47874 11.017 5.57112 12.7976 4.76927 16.071C3.37347 15.9529 2.01782 15.512 0.794837 14.7784C0.78094 14.6831 0.771885 14.587 0.767721 14.4906V14.4614C0.736731 13.5732 1.04663 11.6509 4.06038 10.4875ZM20.8607 17.8516V17.1552C20.8607 16.9249 20.6872 16.7382 20.4733 16.7382H19.1291C18.9152 16.7382 18.7417 16.9249 18.7417 17.1552V17.8516H18.2653V17.1552C18.2653 16.9249 18.0918 16.7382 17.8779 16.7382H16.5415C16.3275 16.7382 16.1541 16.9249 16.1541 17.1552V17.8349C15.6273 17.4805 13.702 16.4505 10.9711 18.0935C10.4852 18.2661 9.98967 18.4054 9.48745 18.5105V18.2227C9.48745 17.9925 9.314 17.8057 9.10007 17.8057H7.76364C7.54972 17.8057 7.37627 17.9925 7.37627 18.2227V18.794H7.17871V18.2102C7.17871 17.98 7.00527 17.7932 6.79134 17.7932H5.44716C5.23324 17.7932 5.05979 17.98 5.05979 18.2102V18.7065L4.86223 18.6773V18.2102C4.86223 17.98 4.68879 17.7932 4.47486 17.7932H3.13069C2.93366 17.7917 2.76694 17.9496 2.74331 18.1602C2.05578 17.9165 1.39371 17.5965 0.767721 17.2053V15.7124C2.45666 16.6757 4.64143 17.0385 6.96566 17.0385C13.1404 17.0385 20.206 14.4948 21.0389 14.1904L21.0427 17.8516H20.8607ZM20.6709 13.4523C20.3416 13.5691 19.532 13.8693 18.4125 14.1904C16.6793 13.2874 15.9543 11.043 16.7931 9.17731C17.3669 7.90109 18.5598 7.0819 19.8767 7.05975C20.0295 7.05746 20.1821 7.0658 20.3338 7.08477L20.3377 7.09728C20.9071 8.86535 21.4185 11.3882 20.6709 13.4523Z" fill="#0266C1"/>
<path d="M13.8069 1.34694C13.1844 1.34694 12.6797 1.89023 12.6797 2.5604C12.6818 3.22962 13.1853 3.77156 13.8069 3.77386C14.4295 3.77386 14.9342 3.23056 14.9342 2.5604C14.9342 1.89023 14.4295 1.34694 13.8069 1.34694ZM13.8069 2.93986C13.6122 2.93986 13.4544 2.76999 13.4544 2.5604C13.4544 2.3508 13.6122 2.18093 13.8069 2.18093C14.0016 2.18093 14.1595 2.3508 14.1595 2.5604C14.1595 2.76999 14.0016 2.93986 13.8069 2.93986Z" fill="#0266C1"/>
</svg>
