<svg width="23" height="17" viewBox="0 0 23 17" fill="none" xmlns="http://www.w3.org/2000/svg">
<path d="M11.0712 13.8573C10.3319 10.7342 8.15767 8.10562 5.1641 6.7157C3.68981 6.03119 2.0958 5.68379 0.5 5.6735C0.59333 7.88657 1.41013 10.0408 2.87305 11.8094C4.92948 14.2956 8.04047 15.7513 11.3361 15.7725C11.3091 15.1329 11.2214 14.4919 11.0712 13.8573ZM11.0712 13.8573C10.4643 11.2935 8.89028 9.06293 6.68991 7.57732C6.72706 7.3558 6.77167 7.13472 6.82383 6.91441C7.44937 4.27203 9.10203 1.98368 11.409 0.5C13.7161 1.98368 15.3687 4.27203 15.9943 6.91441C16.0464 7.13471 16.091 7.35578 16.1282 7.57729C13.9278 9.0629 12.3539 11.2934 11.747 13.8573M11.0712 13.8573C11.2214 14.4917 11.309 15.1325 11.336 15.7719C11.3816 15.7725 11.4272 15.7727 11.4729 15.7727C12.3968 15.7727 13.3066 15.66 14.1834 15.4433C14.1884 15.4367 14.1933 15.4301 14.1983 15.4235C13.3203 15.6472 12.4086 15.7665 11.4821 15.7725M11.747 13.8573C12.4863 10.7342 14.6605 8.10562 17.6541 6.7157C19.1284 6.03119 20.7224 5.68379 22.3182 5.6735C22.2249 7.88657 21.4081 10.0408 19.9451 11.8094C17.8887 14.2956 14.7777 15.7513 11.4821 15.7725M11.747 13.8573C11.5967 14.4919 11.5091 15.1329 11.4821 15.7725" stroke="#0266C1" stroke-linecap="round" stroke-linejoin="round"/>
</svg>
