<svg width="25" height="25" viewBox="0 0 25 25" fill="none" xmlns="http://www.w3.org/2000/svg">
<path d="M23.4153 24.0394L15.5583 5.75889C15.4551 5.51649 15.1749 5.40372 14.9325 5.50695C14.8192 5.55525 14.7289 5.64553 14.6806 5.75889L9.93871 16.7692L7.00963 10.0094C6.90634 9.76699 6.62614 9.65423 6.3838 9.75745C6.27044 9.80575 6.18016 9.89604 6.13186 10.0094L3.37928 16.3685L0.0399368 24.0346C-0.0654315 24.2761 0.0448861 24.5573 0.286333 24.6627C0.347037 24.6891 0.412572 24.7027 0.478822 24.7025H22.9765C23.2399 24.7023 23.4533 24.4886 23.4531 24.225C23.4531 24.1613 23.4402 24.0981 23.4153 24.0394ZM15.1147 7.1471L18.2107 14.3458H17.1231L15.1576 12.1752C14.9804 11.9802 14.6787 11.9658 14.4837 12.1431C14.4531 12.1708 14.4263 12.2025 14.4039 12.2372L13.6692 13.3726H12.4384L15.1147 7.1471ZM6.57074 11.3833L9.018 17.0411H7.68226C7.52007 17.0414 7.36914 17.124 7.28154 17.2605L6.80449 18.0191L5.57371 16.2826C5.48474 16.1543 5.33864 16.0777 5.18253 16.0775H4.54805L6.57074 11.3833ZM1.22779 23.7484L4.13302 17.0316H4.93446L6.42285 19.1544C6.51182 19.2827 6.65792 19.3593 6.81403 19.3596C6.97283 19.3561 7.11947 19.2738 7.20522 19.1401L7.93987 18.0047H9.42826L11.9137 23.7293L1.22779 23.7484ZM12.9584 23.7484L10.4587 17.9761L12.0282 14.3267H13.9364C14.0986 14.3264 14.2495 14.2437 14.3371 14.1072L14.8666 13.2915L16.5554 15.1568C16.6455 15.2567 16.7738 15.3139 16.9084 15.3142H18.6162L22.2466 23.7627L12.9584 23.7484Z" fill="#2D383F"/>
<path d="M7.61068 1.93296C7.16065 0.773667 5.85598 0.198762 4.69675 0.648858C3.83359 0.983926 3.26357 1.81328 3.26 2.73917C3.25529 2.82182 3.25529 2.90459 3.26 2.98723C2.13213 3.51103 1.6425 4.84999 2.1663 5.97786C2.52904 6.75884 3.30543 7.26458 4.16639 7.28068L4.19024 7.29976H7.52959C9.0116 7.32218 10.2311 6.13892 10.2535 4.65691C10.2759 3.17489 9.0927 1.95538 7.61068 1.93296ZM7.55821 6.35997H4.21886C3.50484 6.43374 2.86625 5.91477 2.79249 5.20074C2.71872 4.48672 3.23769 3.84813 3.95172 3.77437C4.20998 3.72231 4.37719 3.47078 4.32513 3.21246C4.32113 3.19272 4.31594 3.17322 4.3095 3.1542C4.26293 3.02075 4.23878 2.88049 4.23795 2.73917C4.23389 2.02252 4.81148 1.43832 5.52813 1.4342C6.16207 1.43056 6.70578 1.88555 6.81401 2.51019C6.85784 2.76099 7.09094 2.93315 7.34354 2.90137C7.41504 2.89665 7.48671 2.89665 7.55821 2.90137C8.51326 2.90137 9.28751 3.67562 9.28751 4.63067C9.28751 5.58572 8.51326 6.35997 7.55821 6.35997Z" fill="#2D383F"/>
<path d="M23.6967 2.49105C23.7014 2.4084 23.7014 2.32563 23.6967 2.24298C23.6919 0.999435 22.6799 -0.00475357 21.4363 1.69268e-05C20.5172 0.0035948 19.6938 0.565678 19.354 1.41834C17.8795 1.44923 16.7047 2.66499 16.727 4.14164C16.7494 5.62365 17.9689 6.80691 19.451 6.78449H22.7903C24.0337 6.76124 25.0228 5.73451 24.9995 4.49114C24.9834 3.63018 24.4777 2.85379 23.6967 2.49105ZM24.056 4.79866C23.9297 5.39115 23.4103 5.81739 22.8046 5.82562H19.4653C18.5102 5.82562 17.736 5.05137 17.736 4.09632C17.736 3.14127 18.5102 2.36702 19.4653 2.36702C19.5368 2.36231 19.6084 2.36231 19.6799 2.36702C19.9213 2.39206 20.143 2.23195 20.1952 1.99492C20.3147 1.28835 20.9844 0.812491 21.6911 0.932052C22.3976 1.05161 22.8735 1.72133 22.7539 2.42796C22.7418 2.4997 22.7236 2.5703 22.6997 2.63899C22.6154 2.88861 22.7495 3.15928 22.9992 3.24353C23.0183 3.24997 23.0377 3.25522 23.0574 3.25916C23.7584 3.40847 24.2054 4.09775 24.056 4.79866Z" fill="#2D383F"/>
</svg>
