<svg width="23" height="23" viewBox="0 0 23 23" fill="none" xmlns="http://www.w3.org/2000/svg">
<path d="M19.2013 8.97356H13.3571C11.5281 8.97356 10.0455 10.4672 10.0455 12.3097C10.0455 14.1522 11.5281 15.6459 13.3571 15.6459H15.8896C17.7186 15.6459 19.2013 17.1395 19.2013 18.982C19.2013 20.8245 17.7186 22.3182 15.8896 22.3182H3.61688M6.73377 16.7875C6.73377 15.0533 5.33829 13.6476 3.61688 13.6476C1.89548 13.6476 0.5 15.0533 0.5 16.7875V16.9055C0.5 17.594 0.716547 18.2649 1.11856 18.8217L3.61073 22.2738C3.61377 22.278 3.62 22.278 3.62304 22.2738L6.11521 18.8217C6.51722 18.2649 6.73377 17.594 6.73377 16.9055V16.7875ZM4.21942 15.495L4.23813 15.5039C4.61537 15.6836 4.8904 16.0272 4.98486 16.4366C5.08037 16.8507 4.97772 17.2896 4.71175 17.6196C4.4487 17.9459 4.05074 18.139 3.63344 18.139H3.60033C3.18302 18.139 2.78506 17.9459 2.52202 17.6196C2.25604 17.2896 2.15339 16.8507 2.2489 16.4366C2.34337 16.0272 2.6184 15.6836 2.99564 15.5039L3.01434 15.495C3.39578 15.3132 3.83799 15.3132 4.21942 15.495ZM22.3182 3.66198C22.3182 1.92786 20.9227 0.5 19.2013 0.5C17.4799 0.5 16.0844 1.92786 16.0844 3.66198C16.0844 4.34369 16.3026 5.01462 16.7066 5.56151L19.1951 8.93017C19.1982 8.93433 19.2044 8.93433 19.2075 8.93017L21.696 5.56151C22.1 5.01462 22.3182 4.34369 22.3182 3.66198ZM19.7954 2.30148L19.8377 2.32118C20.2052 2.4923 20.4744 2.82384 20.5681 3.22062C20.6641 3.62758 20.5645 4.05635 20.2992 4.37809L20.2859 4.39423C20.0271 4.70791 19.6433 4.88937 19.2385 4.88937H19.1641C18.7593 4.88937 18.3755 4.70791 18.1167 4.39423L18.1034 4.37809C17.8381 4.05635 17.7385 3.62758 17.8345 3.22062C17.9282 2.82384 18.1974 2.4923 18.5649 2.32118L18.6072 2.30148C18.9841 2.12598 19.4185 2.12598 19.7954 2.30148Z" stroke="#0266C1" stroke-linecap="round"/>
</svg>
