<svg width="21" height="21" viewBox="0 0 21 21" fill="none" xmlns="http://www.w3.org/2000/svg">
<path d="M18.8236 19.5463C18.5034 20.1772 17.8438 20.5691 17.1426 20.4924C16.8412 20.4594 16.5402 20.4191 16.2396 20.3713C12.3229 19.7485 8.70304 17.8968 5.89895 15.0817C3.09486 12.2665 1.25046 8.63245 0.630104 4.70027C0.582541 4.39878 0.54236 4.09673 0.509521 3.79437C0.433062 3.09039 0.823458 2.42818 1.45195 2.10668L4.20244 0.699719C5.26693 0.155197 6.55498 0.790371 6.92933 1.92938C7.15638 2.62021 7.42452 3.30001 7.73342 3.96506C7.88821 4.29831 8.0524 4.62607 8.22567 4.94801C8.63588 5.71019 8.35917 6.68778 7.5736 7.04626C6.43267 7.56691 6.16094 9.07134 7.04713 9.96101L10.9995 13.929C11.8857 14.8187 13.3842 14.5459 13.9028 13.4004C14.2796 12.5683 15.3009 12.267 16.1118 12.6826C16.3084 12.7834 16.5071 12.8808 16.7078 12.9747C17.4681 13.3307 18.2478 13.6327 19.0413 13.8804C20.1964 14.2409 20.8521 15.5494 20.3029 16.6315L18.8236 19.5463Z" stroke="#2D383F" stroke-linecap="round" stroke-linejoin="round"/>
</svg>
