<svg width="24" height="25" viewBox="0 0 24 25" fill="none" xmlns="http://www.w3.org/2000/svg">
<path d="M23.3408 22.2803V6.70123C23.3527 6.44571 23.1552 6.22897 22.8997 6.2171C22.8453 6.21456 22.7908 6.22168 22.7388 6.23812V6.26127L20.6548 6.91426C20.873 6.33016 21.0025 5.71665 21.0392 5.09423C21.0392 2.28077 18.7584 0 15.9449 0C13.1315 0 10.8507 2.28077 10.8507 5.09423C10.8832 5.68754 11.0034 6.27279 11.2073 6.8309L7.76176 5.59902C7.72176 5.5941 7.68135 5.5941 7.64135 5.59902H7.6043C7.54878 5.60001 7.49385 5.61101 7.44221 5.63144L0.296392 8.41011C0.131582 8.47281 0.016672 8.62361 0 8.79913V24.3967C0.000752557 24.6525 0.20869 24.8592 0.464501 24.8585C0.521059 24.8583 0.577095 24.8478 0.629832 24.8274L7.61356 22.1229L15.5791 24.9756C15.6752 25.0081 15.7793 25.0081 15.8755 24.9756L23.0167 22.7434C23.2173 22.6806 23.3505 22.4904 23.3408 22.2803ZM15.9449 0.926224C18.2469 0.926224 20.113 2.79228 20.113 5.09423C20.113 6.905 17.3945 11.9066 15.9449 14.3565C14.4954 11.8881 11.7769 6.88184 11.7769 5.09423C11.7769 2.79228 13.643 0.926224 15.9449 0.926224ZM22.4285 21.9608L16.195 23.9105V20.3769C16.195 20.1212 15.9877 19.9138 15.7319 19.9138C15.4762 19.9138 15.2688 20.1212 15.2688 20.3769V23.8781L8.07204 21.3032V18.3392C8.07204 18.0835 7.86468 17.8761 7.60893 17.8761C7.35318 17.8761 7.14582 18.0835 7.14582 18.3392V21.3032L0.926224 23.7252V16.5655L3.214 15.6393C3.45881 15.5652 3.59716 15.3067 3.52307 15.0618C3.44897 14.817 3.19044 14.6787 2.94562 14.7528C2.92004 14.7605 2.89514 14.7705 2.87124 14.7825L0.926166 15.5652V9.11868L7.14576 6.71049V8.09983C7.14576 8.35558 7.35312 8.56294 7.60887 8.56294C7.86462 8.56294 8.07198 8.35558 8.07198 8.09983V6.69197L11.6241 7.96553C12.7632 10.5687 14.0736 13.0936 15.5466 15.5235C15.6792 15.7422 15.964 15.8119 16.1828 15.6793C16.2464 15.6407 16.2999 15.5872 16.3385 15.5235C17.8043 13.1079 19.11 10.5985 20.2472 8.01184L22.4146 7.33106L22.4285 14.9215L20.0805 15.4911C19.8247 15.5218 19.6423 15.754 19.6729 16.0098C19.7036 16.2655 19.9359 16.448 20.1916 16.4173C20.2286 16.4218 20.2658 16.4218 20.3028 16.4173L22.4285 15.8986L22.4285 21.9608Z" fill="#2D383F"/>
<path d="M15.9264 2.40353C14.4404 2.40353 13.2357 3.6082 13.2357 5.09421C13.2357 6.58022 14.4404 7.78489 15.9264 7.78489C17.4113 7.78235 18.6145 6.57918 18.617 5.09421C18.617 3.6082 17.4124 2.40353 15.9264 2.40353ZM15.9264 6.85867C14.9602 6.84605 14.1829 6.0605 14.1804 5.09421H14.1619C14.1619 4.11971 14.9519 3.32976 15.9264 3.32976C16.9009 3.32976 17.6908 4.11971 17.6908 5.09421C17.6908 6.06872 16.9009 6.85867 15.9264 6.85867Z" fill="#2D383F"/>
<path d="M9.86891 13.9674V13.9813L7.62745 13.0134C7.51335 12.9659 7.38495 12.9659 7.27085 13.0134L5.37672 13.7776C5.13886 13.8735 5.02377 14.1441 5.1197 14.3819C5.21562 14.6198 5.48619 14.7349 5.72406 14.639L7.43757 13.9489L9.49842 14.8196C9.55694 14.8445 9.62004 14.8571 9.68366 14.8566C9.93941 14.8587 10.1485 14.6531 10.1505 14.3973C10.152 14.2103 10.041 14.0407 9.86891 13.9674Z" fill="#2D383F"/>
<path d="M17.4407 16.616C17.3716 16.3929 17.1473 16.2561 16.9174 16.2969L16.922 16.2598L15.7735 16.5377L13.8284 15.6948C13.5931 15.5925 13.3194 15.7003 13.2171 15.9356C13.1149 16.171 13.2226 16.4447 13.458 16.5469L15.542 17.4732C15.6005 17.4981 15.6636 17.5107 15.7272 17.5102H15.8383L17.1351 17.1953C17.3794 17.1197 17.5162 16.8604 17.4407 16.616Z" fill="#2D383F"/>
</svg>
