<svg width="21" height="23" viewBox="0 0 21 23" fill="none" xmlns="http://www.w3.org/2000/svg">
<path d="M7.86365 11.3746L10.3182 13.8228L14.6137 9.53842M10.3181 0.561523C7.78585 1.85642 4.96462 2.54494 2.08075 2.54494C1.6914 2.54494 1.3032 2.53239 0.916698 2.50749C0.41778 4.78366 0.362579 7.1521 0.77434 9.4813C1.51146 13.651 3.69791 17.4282 6.9497 20.1498C7.99231 21.0224 9.12307 21.7686 10.3182 22.3797C11.5133 21.7686 12.6441 21.0224 13.6867 20.1498C16.9385 17.4282 19.1249 13.651 19.862 9.4813C20.2738 7.1521 20.2186 4.78366 19.7197 2.50748C19.3331 2.53239 18.9449 2.54494 18.5555 2.54494C15.6717 2.54494 12.8504 1.85641 10.3181 0.561523Z" stroke="#0266C1"/>
</svg>
