<svg width="25" height="25" viewBox="0 0 25 25" fill="none" xmlns="http://www.w3.org/2000/svg">
<path d="M24.3091 18.0832L19.4022 12.4696H21.7729C22.0497 12.4689 22.2736 12.244 22.273 11.9672C22.2727 11.857 22.2361 11.7499 22.1689 11.6626L18.2293 6.48504H20.2342C20.511 6.48466 20.7351 6.25999 20.7348 5.98319C20.7347 5.86165 20.6903 5.7443 20.6101 5.65302L15.7884 0.169703C15.6053 -0.0379264 15.2886 -0.0577872 15.0809 0.125345C15.0652 0.139191 15.0504 0.15404 15.0366 0.169703L10.2099 5.648C10.0244 5.8535 10.0406 6.17046 10.2461 6.35591C10.3392 6.43993 10.4603 6.48598 10.5858 6.48504H12.6157L11.4028 8.06888L8.15486 4.37491C7.97179 4.16728 7.65503 4.14742 7.4474 4.33055C7.43167 4.3444 7.41688 4.35925 7.40304 4.37491L3.27802 9.06129C3.09533 9.26923 3.11582 9.58594 3.32376 9.76863C3.41504 9.84883 3.53239 9.89312 3.65394 9.89331H5.24279L1.94479 14.2088C1.78145 14.4323 1.83013 14.7458 2.05361 14.9092C2.13707 14.9703 2.23737 15.004 2.34075 15.0057H4.19525L0.120358 19.6921C-0.0595785 19.9024 -0.0349563 20.2188 0.17543 20.3988C0.264897 20.4754 0.378548 20.518 0.496271 20.5191H6.03973V24.0276C6.03973 24.5646 6.4751 25 7.01209 25H8.5408C9.07779 25.0027 9.51542 24.5697 9.51817 24.0326C9.51817 24.0309 9.51817 24.0293 9.51817 24.0276V20.5191H13.6783V24.0276C13.6783 24.5646 14.1136 25 14.6506 25H16.1793C16.7163 25 17.1517 24.5646 17.1517 24.0276V18.9152H23.9332C24.21 18.9148 24.4341 18.6902 24.4338 18.4134C24.4336 18.2918 24.3893 18.1745 24.3091 18.0832ZM8.51574 23.9976L7.04216 24.0276L7.01209 20.5191H8.51574V23.9976ZM13.6783 19.5167H1.59895L5.6989 14.8403C5.88448 14.6349 5.86838 14.318 5.663 14.1324C5.56727 14.046 5.4419 13.9997 5.31296 14.0033H3.35822L6.65623 9.68781C6.82507 9.46847 6.78416 9.15376 6.56482 8.98492C6.47748 8.91769 6.37047 8.8811 6.26026 8.88085H4.75661L7.76392 5.45754L10.7712 8.87083L8.65608 11.6676C8.48723 11.887 8.52815 12.2017 8.74749 12.3705C8.83483 12.4377 8.94184 12.4743 9.05204 12.4746H11.4278L6.5209 18.0882C6.3382 18.2962 6.35869 18.6129 6.56663 18.7955C6.65792 18.8757 6.77526 18.92 6.89681 18.9202H13.6783V19.5167ZM16.1493 23.9875L14.6807 24.0276L14.6506 18.9152H16.1543L16.1493 23.9875ZM16.1793 17.9128H7.99949L12.9064 12.2992C13.0891 12.0912 13.0686 11.7745 12.8607 11.5918C12.7694 11.5116 12.652 11.4673 12.5305 11.4671H10.0695L14.0291 6.28455C14.1952 6.06314 14.1504 5.74894 13.9289 5.58285C13.8436 5.51881 13.7399 5.48367 13.6332 5.4826H11.7135L15.4325 1.26236L19.1315 5.4826H17.1968C16.92 5.48329 16.6962 5.70821 16.6968 5.98501C16.697 6.09521 16.7336 6.20222 16.8009 6.28956L20.7354 11.4671H18.2945C18.0177 11.4675 17.7936 11.6922 17.7939 11.969C17.794 12.0905 17.8384 12.2079 17.9186 12.2992L22.8255 17.9128H16.1793Z" fill="#2D383F"/>
</svg>
